<svg width="50" height="46" viewBox="0 0 50 46" fill="none" xmlns="http://www.w3.org/2000/svg">
<rect width="50" height="46" fill="white"/>
<path d="M14.1572 31.5604L15.9196 28.8407" stroke="#FF8D23" stroke-width="2" stroke-linecap="round" stroke-linejoin="round"/>
<path d="M30.019 31.5604L31.7815 28.8407" stroke="#FF8D23" stroke-width="2" stroke-linecap="round" stroke-linejoin="round"/>
<path d="M20.3257 37L22.0881 34.2802" stroke="#FF8D23" stroke-width="2" stroke-linecap="round" stroke-linejoin="round"/>
<path d="M4.46411 37L6.22652 34.2802" stroke="#FF8D23" stroke-width="2" stroke-linecap="round" stroke-linejoin="round"/>
<path d="M36.1875 37L37.9499 34.2802" stroke="#FF8D23" stroke-width="2" stroke-linecap="round" stroke-linejoin="round"/>
<path d="M36.1879 22.0412C38.5249 22.0412 40.7663 21.3248 42.4188 20.0497C44.0716 18.7745 45 17.0451 45 15.2418C45 13.4384 44.0716 11.709 42.4188 10.4338C40.7663 9.15867 38.5249 8.4423 36.1879 8.4423C34.1778 8.44747 32.2286 8.97437 30.6538 9.93818C30.1854 8.03602 29.025 6.27603 27.3082 4.86394C25.5913 3.45183 23.389 2.446 20.9587 1.96397C18.5284 1.48195 15.9706 1.54366 13.584 2.14189C11.1975 2.74013 9.08093 3.85017 7.48182 5.34224C5.88268 6.83434 4.867 8.64683 4.5535 10.5679C4.24004 12.4889 4.64169 14.4391 5.71155 16.1905C6.7814 17.9419 8.47522 19.4221 10.5951 20.4582C12.7149 21.4943 15.1732 22.0433 17.6825 22.0412H36.1879Z" stroke="#FF8D23" stroke-width="2" stroke-linecap="round" stroke-linejoin="round"/>
</svg>
