<svg width="41" height="31" viewBox="0 0 41 31" fill="none" xmlns="http://www.w3.org/2000/svg">
<g clip-path="url(#clip0_10_80)">
<rect width="41" height="31" fill="white"/>
<path d="M32.2144 18.8214C30.6306 18.823 29.0898 19.2114 27.8215 19.9286C27.8215 17.9578 27.0486 16.0314 25.6005 14.3927C24.1524 12.7541 22.0942 11.477 19.6862 10.7228C17.2781 9.96862 14.6283 9.77128 12.0719 10.1558C9.51553 10.5402 7.16734 11.4892 5.32427 12.8828C3.48123 14.2763 2.22608 16.0518 1.71758 17.9847C1.20909 19.9175 1.47007 21.921 2.46752 23.7418C3.46498 25.5624 5.15409 27.1186 7.32132 28.2136C9.48852 29.3085 12.0365 29.8929 14.6429 29.8929H32.2144C34.156 29.8929 36.0183 29.3096 37.3915 28.2716C38.7644 27.2333 39.5358 25.8252 39.5358 24.3572C39.5358 22.8891 38.7644 21.481 37.3915 20.4428C36.0183 19.4047 34.156 18.8214 32.2144 18.8214Z" stroke="#FF8D23" stroke-linecap="round" stroke-linejoin="round"/>
<path d="M32.9465 11.0714C36.5855 11.0714 39.5357 8.84085 39.5357 6.08929C39.5357 3.33773 36.5855 1.10715 32.9465 1.10715C29.3074 1.10715 26.3572 3.33773 26.3572 6.08929C26.3572 8.84085 29.3074 11.0714 32.9465 11.0714Z" stroke="#FF8D23" stroke-linecap="round" stroke-linejoin="round"/>
</g>
<defs>
<clipPath id="clip0_10_80">
<rect width="41" height="31" fill="white"/>
</clipPath>
</defs>
</svg>
