<svg width="37" height="28" viewBox="0 0 37 28" fill="none" xmlns="http://www.w3.org/2000/svg">
<rect width="37" height="28" fill="white"/>
<path d="M1.32153 7C4.63219 5.80304 8.22745 5.12284 11.893 5C17.1787 5 19.8215 8 25.1072 8C28.7726 7.87716 32.368 7.19696 35.6787 6L30.393 4" stroke="#FF8D23" stroke-linecap="round" stroke-linejoin="round"/>
<path d="M1.32153 15C4.63219 13.803 8.22745 13.1228 11.893 13C17.1787 13 19.8215 16 25.1072 16C28.7726 15.8772 32.368 15.197 35.6787 14L30.393 12" stroke="#FF8D23" stroke-linecap="round" stroke-linejoin="round"/>
<path d="M1.32153 23C4.63219 21.803 8.22745 21.1228 11.893 21C17.1787 21 19.8215 24 25.1072 24C28.7726 23.8772 32.368 23.197 35.6787 22L30.393 20" stroke="#FF8D23" stroke-linecap="round" stroke-linejoin="round"/>
</svg>
